<svg
  class="fill-current"
  width="20"
  height="20"
  viewBox="0 0 20 20"
  fill="none"
  xmlns="http://www.w3.org/2000/svg"
>
  <path
    fill-rule="evenodd"
    clip-rule="evenodd"
    d="M2.5825 9.9986C2.5822 10.1909 2.6554 10.3832 2.802 10.53L7.7987 15.5301C8.0915 15.8231 8.5663 15.8233 8.8593 15.5305C9.1523 15.2377 9.1525 14.7629 8.8597 14.4699L5.1396 10.7472L16.667 10.7472C17.0812 10.7472 17.417 10.4114 17.417 9.99715C17.417 9.58294 17.0812 9.24715 16.667 9.24715L5.1451 9.24715L8.8597 5.53016C9.1525 5.23717 9.1523 4.7623 8.8593 4.4695C8.5664 4.1767 8.0915 4.17685 7.7987 4.46984L2.8412 9.43049C2.6827 9.568 2.5825 9.77087 2.5825 9.99715C2.5825 9.99763 2.5825 9.99812 2.5825 9.9986Z"
    fill="currentColor"
  />
</svg>
